<svg xmlns="http://www.w3.org/2000/svg" version="1.1" xmlns:xlink="http://www.w3.org/1999/xlink" xmlns:svgjs="http://svgjs.dev/svgjs" width="100%" height="100%" viewBox="0 0 1000 600"><rect width="1000" height="600" x="0" y="0" fill="#ccf381"/><g><rect width="333.3333333333333" height="333.3333333333333" rx="13.333333333333334" ry="13.333333333333334" y="157.461690342132" fill="#4831d4" transform="matrix(0.92428636901005,0,0,0.9242863690100502,0,0.412576343028789)" x="135.23947143554688"/><path d="M268.41473246108455 399.1283440778278L268.41473246108455 399.1283440778278Q267.9701562957289 395.9273956872667 268.41473246108455 392.3115095423737L268.41473246108455 392.3115095423737Q279.0845604296215 391.24452674552 283.5599604942023 390.2664591817374Q288.03536055878305 389.31803002897857 289.1023433556367 386.11708163841746Q290.1693261524904 382.9161332478564 290.1693261524904 375.2397847927146L290.1693261524904 375.2397847927146L290.1693261524904 258.7311910584961L274.8166292422067 258.7311910584961Q263.49475623114813 258.7311910584961 256.97430580593107 261.8135858049623Q250.48349379173777 264.8959805514285 246.54158512558388 271.0904084553847Q242.57003804840622 277.28483635934083 238.74668302634717 286.8876815310241L238.74668302634717 286.8876815310241Q235.33826575862008 287.3026192853561 231.9002100798693 286.8876815310241L231.9002100798693 286.8876815310241Q233.2043001649127 276.6327913168192 234.36019819483755 267.2670534333256Q235.5457346357861 257.87167713880837 236.4052485554738 249.12834588681287L236.4052485554738 249.12834588681287Q250.2760249145718 249.95822139547684 267.11064237604114 250.0767750395717Q283.97489824853426 250.19532868366656 302.113605795047 250.19532868366656L302.113605795047 250.19532868366656Q320.45978221872576 250.19532868366656 337.4425917353137 250.0767750395717Q354.395762840878 249.95822139547684 368.05907032281 249.12834588681287L368.05907032281 249.12834588681287Q368.9185842424977 257.6642082616424 369.7780981621854 267.14849978923075Q370.60797367084933 276.6327913168192 371.91206375589275 286.8876815310241L371.91206375589275 286.8876815310241Q368.26653919997597 287.3026192853561 364.8581219322489 286.8876815310241L364.8581219322489 286.8876815310241Q360.79765962200014 277.07736748217485 356.73719731175134 270.8829395782187Q352.7063734125263 264.68851167426254 346.3933918644753 261.69503216086747Q340.110048727448 258.7311910584961 328.78817571638933 258.7311910584961L328.78817571638933 258.7311910584961L313.64294768327164 258.7311910584961L313.64294768327164 372.4537741564855Q313.64294768327164 379.06313981477365 314.05788543760366 382.9161332478564Q314.50246160295933 386.7691266809392 316.51787355257187 388.4585161092909Q318.5629239132081 390.17754394866625 323.0383239777889 390.91850422425915Q327.51372404236963 391.65946449985194 335.39754137467753 392.3115095423737L335.39754137467753 392.3115095423737Q336.0495864171992 395.71992681010073 335.39754137467753 399.1283440778278L335.39754137467753 399.1283440778278Q330.9221413100967 399.1283440778278 324.6387981730694 399.0394288447566Q318.32581662501843 398.9208752006618 312.16102713208596 398.80232155656694Q305.96659922812984 398.7134063234958 301.698668040715 398.7134063234958L301.698668040715 398.7134063234958Q297.63820573046627 398.7134063234958 291.56233147060493 398.80232155656694Q285.48645721074365 398.9208752006618 279.1734756626926 399.0394288447566Q272.8901325256653 399.1283440778278 268.41473246108455 399.1283440778278Z " fill="#ccf381" transform="matrix(0.92428636901005,0,0,0.9242863690100502,0,0.412576343028789)"/><path d="M551.9061383050064 383.40996390237177L551.9061383050064 383.40996390237177Q551.9061383050064 376.9731819168641 556.2452190184513 372.54789430182757Q560.5842997318961 368.0938710529272 566.7911966464928 368.0938710529272L566.7911966464928 368.0938710529272Q573.8314269431418 368.0938710529272 578.084300754995 372.7490437388747Q582.3084389329845 377.4042164248222 582.3084389329845 383.40996390237177L582.3084389329845 383.40996390237177Q582.3084389329845 389.6168608169684 578.084300754995 394.1570909674604Q573.8314269431418 398.6973211179524 566.7911966464928 398.6973211179524L566.7911966464928 398.6973211179524Q560.5842997318961 398.6973211179524 556.2452190184513 394.2720335029159Q551.9061383050064 389.8180102540155 551.9061383050064 383.40996390237177ZM735.6417812306133 353.40996214848786L735.6417812306133 353.40996214848786Q733.1417810844563 371.59961838431974 731.9061488283097 390.42145856515685L731.9061488283097 390.42145856515685Q720.5268378182159 393.75479209336623 708.7452279340278 396.4272060427065Q696.9348824159757 399.12835562591056 683.4866057676829 399.12835562591056L683.4866057676829 399.12835562591056Q660.5268343104481 399.12835562591056 643.6590172323542 390.01915969106267Q626.7912001542605 380.9099637562148 617.4808547823656 364.47318118607916Q608.1705094104706 348.00766298207964 608.1705094104706 325.68007546984995L608.1705094104706 325.68007546984995Q608.1705094104706 303.1226028867093 617.4808547823656 285.8524869345213Q626.7912001542605 268.5823709823334 643.7739597678099 258.84099110248025Q660.7279837474952 249.12834685649102 683.68775520473 249.12834685649102L683.68775520473 249.12834685649102Q692.1935028284366 249.12834685649102 698.6015491800804 250.16282967559047Q705.0095955317241 251.19731249468992 714.118791466572 253.26627813288883L714.118791466572 253.26627813288883Q718.2567227429698 254.09961151494113 721.3601712002682 254.9042092631296Q724.4636196575665 255.73754264518192 727.7682175519119 255.73754264518192L727.7682175519119 255.73754264518192Q728.8027003710114 255.73754264518192 730.038332627158 255.6513357435903Q731.2739648833044 255.53639320813483 732.1072982653568 255.3352437710877L732.1072982653568 255.3352437710877Q732.538332773315 264.44443970593557 732.9406316474092 274.15708395192485Q733.3429305215034 283.86972819791407 734.1762639035558 294.4444414598195L734.1762639035558 294.4444414598195Q730.038332627158 295.0478897709608 727.1360336069067 294.8467403339137L727.1360336069067 294.8467403339137Q719.0900561250221 257.4042094092866 684.7222380238295 257.4042094092866L684.7222380238295 257.4042094092866Q670.8716625014424 257.4042094092866 661.1590182554532 262.8927154772864Q651.4176383756002 268.3524859114224 645.4118908980506 277.77777381877286Q639.434879054365 287.2030617261234 636.7337294711608 298.9846716103115Q634.0325798879567 310.76628149449965 634.0325798879567 323.61110983165105L634.0325798879567 323.61110983165105Q634.0325798879567 341.800766067483 639.434879054365 357.1168589169275Q644.8084425869092 372.43295176637207 656.3889030340503 381.54214770122Q667.9693634811913 390.6513436360679 686.1877553508871 390.6513436360679L686.1877553508871 390.6513436360679Q703.3429287676195 390.6513436360679 713.6015500570223 381.54214770122Q723.8314357125613 372.43295176637207 728.4004014969172 353.18007707757687L728.4004014969172 353.18007707757687Q730.038332627158 353.18007707757687 731.7912062928542 353.18007707757687Q733.5728155924144 353.18007707757687 735.6417812306133 353.40996214848786ZM762.5383345271989 383.40996390237177L762.5383345271989 383.40996390237177Q762.5383345271989 376.9731819168641 766.8774152406437 372.54789430182757Q771.2164959540887 368.0938710529272 777.4233928686854 368.0938710529272L777.4233928686854 368.0938710529272Q784.4636231653343 368.0938710529272 788.6877613433237 372.7490437388747Q792.940635155177 377.4042164248222 792.940635155177 383.40996390237177L792.940635155177 383.40996390237177Q792.940635155177 389.6168608169684 788.6877613433237 394.1570909674604Q784.4636231653343 398.6973211179524 777.4233928686854 398.6973211179524L777.4233928686854 398.6973211179524Q771.2164959540887 398.6973211179524 766.8774152406437 394.2720335029159Q762.5383345271989 389.8180102540155 762.5383345271989 383.40996390237177ZM846.331442874254 396.4272060427065L846.331442874254 396.4272060427065Q845.9004083662958 393.32375758540815 846.331442874254 389.8180102540155L846.331442874254 389.8180102540155Q856.6762710652483 388.78352743491604 861.0153517786932 387.83525151740827Q865.3544324921381 386.9157112337643 866.3889153112376 383.81226277646596Q867.4233981303371 380.70881431916763 867.4233981303371 373.2662851484244L867.4233981303371 373.2662851484244L867.4233981303371 260.3065084295378L852.5383397888506 260.3065084295378Q841.5613276528509 260.3065084295378 835.2394882027987 263.29501435138064Q828.9463843866105 266.28352027322353 825.1245450827153 272.28926775077304Q821.2739701449563 278.2950152283226 817.5670733765165 287.60536060021764L817.5670733765165 287.60536060021764Q814.2624754821711 288.0076594743118 810.9291419539618 287.60536060021764L810.9291419539618 287.60536060021764Q812.1935098439722 277.66283128331736 813.3141995646633 268.5823709823334Q814.4636249192182 259.4731750474855 815.2969583012705 250.9961630576428L815.2969583012705 250.9961630576428Q828.7452349495634 251.80076080583126 845.0670749842434 251.91570334128676Q861.4176506527874 252.03064587674226 879.003858577478 252.03064587674226L879.003858577478 252.03064587674226Q896.7912159392157 252.03064587674226 913.2567341432152 251.91570334128676Q929.6935167133508 251.80076080583126 942.9406439245965 250.9961630576428L942.9406439245965 250.9961630576428Q943.7739773066489 259.2720256104384 944.6073106887012 268.4674284468779Q945.4119084368897 277.66283128331736 946.6762763269 287.60536060021764L946.6762763269 287.60536060021764Q943.1417933616436 288.0076594743118 939.8371954672982 287.60536060021764L939.8371954672982 287.60536060021764Q935.9004136279475 278.0938657912755 931.9636317885968 272.0881183137259Q928.0555855831101 266.0823708361764 921.934895570105 263.1800718159252Q915.8429411909639 260.3065084295378 904.8659290549642 260.3065084295378L904.8659290549642 260.3065084295378L890.1820201505247 260.3065084295378L890.1820201505247 370.5651355652203Q890.1820201505247 376.9731819168641 890.584319024619 380.70881431916763Q891.0153535325771 384.4444467214712 892.9693766353206 386.082377851712Q894.9521353719279 387.7490446158167 899.2912160853728 388.46743546241345Q903.6302967988177 389.18582630901034 911.273975406608 389.8180102540155L911.273975406608 389.8180102540155Q911.9061593516132 393.122608148361 911.273975406608 396.4272060427065L911.273975406608 396.4272060427065Q906.934894693163 396.4272060427065 900.8429403140219 396.3409991411148Q894.7222503010169 396.2260566056593 888.7452384573312 396.1111140702038Q882.7394909797815 396.0249071686122 878.6015597033838 396.0249071686122L878.6015597033838 396.0249071686122Q874.6647778640331 396.0249071686122 868.773972921939 396.1111140702038Q862.883167979845 396.2260566056593 856.7624779668399 396.3409991411148Q850.6705235876989 396.4272060427065 846.331442874254 396.4272060427065Z " fill="#4831d4" transform="matrix(0.92428636901005,0,0,0.9242863690100502,0,0.412576343028789)"/></g></svg>